<svg width="266" height="130" viewBox="0 0 266 130" fill="none" xmlns="http://www.w3.org/2000/svg">
<g clip-path="url(#clip0_127_6)">
<path d="M13.9681 110.272V98.7542H19.1182C19.897 98.7542 20.5716 98.9078 21.142 99.2149C21.7234 99.5111 22.1731 99.9279 22.4912 100.465C22.8093 101.003 22.9684 101.628 22.9684 102.341C22.9684 103.021 22.8093 103.63 22.4912 104.168C22.1731 104.705 21.7234 105.127 21.142 105.435C20.5716 105.731 19.897 105.879 19.1182 105.879H15.9425V110.272H13.9681ZM15.9425 104.266H18.8055C19.5076 104.266 20.0451 104.091 20.418 103.74C20.791 103.378 20.9775 102.906 20.9775 102.325C20.9775 101.754 20.791 101.294 20.418 100.943C20.0451 100.592 19.5131 100.416 18.822 100.416H15.9425V104.266ZM25.3824 110.272V98.7542H27.3568V108.561H33.4942V110.272H25.3824ZM34.9027 110.272L39.4275 98.7542H41.7146L46.1736 110.272H44.0511L42.8664 107.047H38.1441L36.9594 110.272H34.9027ZM38.72 105.5H42.3234L40.5135 100.63L38.72 105.5ZM47.9057 110.272V98.7542H49.8308L55.8365 107.129L55.8036 98.7542H57.6629V110.272H55.9023L49.7321 101.667L49.765 110.272H47.9057ZM61.3443 110.42C61.0262 110.42 60.752 110.305 60.5216 110.075C60.3022 109.833 60.1925 109.553 60.1925 109.235C60.1925 108.895 60.3022 108.61 60.5216 108.38C60.752 108.149 61.0262 108.034 61.3443 108.034C61.6624 108.034 61.9312 108.149 62.1506 108.38C62.3809 108.61 62.4961 108.895 62.4961 109.235C62.4961 109.553 62.3809 109.833 62.1506 110.075C61.9312 110.305 61.6624 110.42 61.3443 110.42ZM69.7998 110.453C68.9662 110.453 68.1928 110.299 67.4798 109.992C66.7668 109.685 66.1361 109.263 65.5876 108.725C65.0501 108.177 64.6278 107.546 64.3207 106.833C64.0245 106.109 63.8764 105.336 63.8764 104.513C63.8764 103.69 64.0245 102.923 64.3207 102.21C64.6278 101.486 65.0501 100.855 65.5876 100.317C66.1251 99.7689 66.7504 99.3411 67.4634 99.0339C68.1764 98.7268 68.9497 98.5732 69.7834 98.5732C70.7048 98.5732 71.5714 98.7487 72.3831 99.0997C73.2058 99.4507 73.8914 99.9608 74.4399 100.63L73.0577 101.864C72.6628 101.37 72.1802 100.997 71.6098 100.745C71.0394 100.482 70.4306 100.35 69.7834 100.35C69.224 100.35 68.7084 100.454 68.2367 100.663C67.765 100.871 67.3537 101.167 67.0027 101.551C66.6626 101.924 66.3939 102.363 66.1964 102.868C65.999 103.372 65.9003 103.921 65.9003 104.513C65.9003 105.105 65.999 105.659 66.1964 106.175C66.3939 106.68 66.6681 107.118 67.0191 107.491C67.3811 107.864 67.798 108.16 68.2696 108.38C68.7413 108.588 69.2624 108.692 69.8328 108.692C70.447 108.692 71.001 108.566 71.4946 108.314C71.9882 108.051 72.3941 107.689 72.7122 107.228C73.0413 106.767 73.2442 106.252 73.321 105.681H69.8986V103.987H75.4107V104.628C75.4107 105.462 75.2681 106.23 74.9828 106.932C74.7086 107.634 74.3192 108.254 73.8146 108.791C73.31 109.318 72.7177 109.729 72.0376 110.025C71.3575 110.31 70.6116 110.453 69.7998 110.453ZM83.1565 110.453C82.3448 110.453 81.5824 110.305 80.8694 110.009C80.1673 109.702 79.5476 109.279 79.0101 108.742C78.4836 108.193 78.0722 107.563 77.776 106.85C77.4799 106.126 77.3318 105.347 77.3318 104.513C77.3318 103.679 77.4799 102.906 77.776 102.193C78.0722 101.469 78.4836 100.838 79.0101 100.301C79.5476 99.7524 80.1673 99.3301 80.8694 99.0339C81.5824 98.7268 82.3448 98.5732 83.1565 98.5732C83.9682 98.5732 84.7251 98.7268 85.4271 99.0339C86.1401 99.3301 86.7599 99.7524 87.2864 100.301C87.8239 100.838 88.2408 101.469 88.5369 102.193C88.8331 102.906 88.9812 103.679 88.9812 104.513C88.9812 105.347 88.8331 106.126 88.5369 106.85C88.2408 107.563 87.8239 108.193 87.2864 108.742C86.7599 109.279 86.1401 109.702 85.4271 110.009C84.7251 110.305 83.9682 110.453 83.1565 110.453ZM83.1565 108.676C83.694 108.676 84.1931 108.572 84.6538 108.363C85.1145 108.155 85.5149 107.864 85.8549 107.491C86.206 107.107 86.4747 106.663 86.6612 106.158C86.8586 105.654 86.9574 105.105 86.9574 104.513C86.9574 103.921 86.8586 103.372 86.6612 102.868C86.4747 102.363 86.206 101.924 85.8549 101.551C85.5149 101.167 85.1145 100.871 84.6538 100.663C84.1931 100.454 83.694 100.35 83.1565 100.35C82.619 100.35 82.1199 100.454 81.6592 100.663C81.1985 100.871 80.7926 101.167 80.4416 101.551C80.0906 101.924 79.8163 102.363 79.6189 102.868C79.4324 103.372 79.3392 103.921 79.3392 104.513C79.3392 105.105 79.4324 105.654 79.6189 106.158C79.8163 106.663 80.0906 107.107 80.4416 107.491C80.7926 107.864 81.1985 108.155 81.6592 108.363C82.1199 108.572 82.619 108.676 83.1565 108.676Z" fill="#321E5D"/>
<path d="M23.8958 82.0611C20.842 82.0611 18.0251 81.8505 15.4451 81.4293C12.9178 81.0081 10.7065 80.4816 8.81099 79.8497C6.96818 79.2706 5.54658 78.6914 4.54619 78.1122L6.12575 71.0042V68.7139C6.86287 69.8196 8.02122 70.9779 9.60077 72.1889C11.1803 73.3999 13.1548 74.4266 15.5241 75.269C17.8934 76.1115 20.5787 76.5327 23.5799 76.5327C27.1075 76.5327 29.7138 75.9535 31.3987 74.7952C33.1362 73.6368 34.2682 72.0309 34.7947 69.9775C35.3739 67.9241 35.6635 65.5811 35.6635 62.9485V60.0263L35.8214 58.6047L35.6635 58.4467C34.979 59.3418 34.0313 60.1843 32.8203 60.974C31.6093 61.7638 30.1613 62.3956 28.4765 62.8695C26.7916 63.3434 24.8961 63.5803 22.7901 63.5803C17.7881 63.5803 13.8919 62.7379 11.1014 61.053C8.36345 59.3682 6.44166 57.0778 5.33597 54.1819C4.28293 51.2861 3.75641 48.0217 3.75641 44.3887C3.75641 40.7031 4.28293 37.4123 5.33597 34.5165C6.44166 31.6206 8.36345 29.3302 11.1014 27.6454C13.8919 25.9079 17.7881 25.0391 22.7901 25.0391C24.8961 25.0391 26.7653 25.2497 28.3975 25.6709C30.0297 26.0395 31.4513 26.566 32.6623 27.2505C33.8733 27.8823 34.8737 28.6458 35.6635 29.5409L35.8214 29.4619L35.6635 27.9613V25.8289H45.2988C44.9302 25.8815 44.5616 26.2764 44.1931 27.0136C43.8772 27.7507 43.7192 28.988 43.7192 30.7255V60.974C43.7192 68.6086 42.087 74.0317 38.8226 77.2435C35.6108 80.4552 30.6352 82.0611 23.8958 82.0611ZM23.3429 57.9729C26.6073 57.9729 29.1346 57.4727 30.9248 56.4723C32.715 55.4193 33.9523 53.8924 34.6368 51.8916C35.3212 49.8382 35.6635 47.3372 35.6635 44.3887C35.6635 41.4928 35.2949 39.0182 34.5578 36.9648C33.8733 34.9113 32.636 33.3318 30.8458 32.2261C29.1083 31.1204 26.6073 30.5676 23.3429 30.5676C20.3944 30.5676 18.0777 31.1467 16.3929 32.3051C14.708 33.4108 13.497 35.0167 12.7599 37.1227C12.0754 39.1762 11.7332 41.6245 11.7332 44.4677C11.7332 47.2582 12.0754 49.6802 12.7599 51.7336C13.4444 53.7344 14.629 55.2876 16.3139 56.3933C18.0514 57.4464 20.3944 57.9729 23.3429 57.9729ZM72.4141 63.5803C67.1489 63.5803 63.0157 62.7379 60.0146 61.053C57.066 59.3682 54.9863 57.0778 53.7753 54.1819C52.617 51.2861 52.0378 48.0217 52.0378 44.3887C52.0378 40.7031 52.6433 37.4123 53.8543 34.5165C55.1179 31.6206 57.224 29.3302 60.1725 27.6454C63.121 25.9079 67.2015 25.0391 72.4141 25.0391C77.6266 25.0391 81.7071 25.9079 84.6556 27.6454C87.6041 29.3302 89.6839 31.6206 90.8949 34.5165C92.1585 37.4123 92.7904 40.7031 92.7904 44.3887C92.7904 48.0217 92.1849 51.2861 90.9739 54.1819C89.8155 57.0778 87.7621 59.3682 84.8136 61.053C81.8651 62.7379 77.7319 63.5803 72.4141 63.5803ZM72.4141 57.9729C75.6785 57.9729 78.2058 57.4464 79.9959 56.3933C81.7861 55.3403 83.0234 53.8134 83.7079 51.8126C84.3924 49.7592 84.7346 47.2845 84.7346 44.3887C84.7346 41.4928 84.3661 39.0182 83.6289 36.9648C82.9445 34.9113 81.7071 33.3318 79.917 32.2261C78.1795 31.1204 75.6785 30.5676 72.4141 30.5676C69.2023 30.5676 66.7013 31.1467 64.9112 32.3051C63.121 33.4108 61.8574 35.0167 61.1202 37.1227C60.4358 39.1762 60.0935 41.6245 60.0935 44.4677C60.0935 47.2582 60.4358 49.6802 61.1202 51.7336C61.8047 53.7344 63.042 55.2876 64.8322 56.3933C66.6224 57.4464 69.1497 57.9729 72.4141 57.9729ZM109.109 62.7905C109.478 62.7905 109.846 62.422 110.215 61.6848C110.583 60.9477 110.768 59.7367 110.768 58.0519V24.0914C110.768 22.933 110.636 22.2486 110.373 22.038C110.11 21.8273 109.188 21.722 107.609 21.722H101.843C98.7894 21.722 96.3147 22.0643 94.4193 22.7488C92.5765 23.3806 91.3655 23.9861 90.7863 24.5652L92.3658 16.9834V15.4038H138.015V16.9834L139.595 24.5652C139.015 23.9861 137.778 23.3806 135.883 22.7488C134.04 22.0643 131.592 21.722 128.538 21.722H122.851C121.219 21.722 120.271 21.8273 120.008 22.038C119.745 22.2486 119.613 22.933 119.613 24.0914V58.0519C119.613 59.7367 119.797 60.9477 120.166 61.6848C120.535 62.422 120.903 62.7905 121.272 62.7905H109.109ZM143.993 62.7905C144.362 62.7905 144.704 62.422 145.02 61.6848C145.389 60.9477 145.573 59.7367 145.573 58.0519V31.3573C145.573 29.6725 145.389 28.4878 145.02 27.8033C144.704 27.0662 144.362 26.6713 143.993 26.6187C146.31 26.6187 148.311 26.4607 149.996 26.1448C151.733 25.7762 152.944 25.4077 153.629 25.0391V28.988L153.471 30.3306L153.629 30.4886C154.418 29.4355 155.366 28.5141 156.472 27.7244C157.63 26.8819 158.946 26.2238 160.421 25.7499C161.895 25.2761 163.58 25.0391 165.475 25.0391C167.95 25.0391 170.082 25.4077 171.872 26.1448C173.715 26.8293 175.032 27.5401 175.821 28.2772L174.242 34.9113V37.2807C173.557 36.4383 172.557 35.5695 171.241 34.6744C169.977 33.7267 168.529 32.9369 166.897 32.3051C165.265 31.6733 163.527 31.3573 161.684 31.3573C159.578 31.3573 157.709 32.1998 156.077 33.8846C154.445 35.5695 153.629 38.36 153.629 42.2563V58.0519C153.629 59.7367 153.787 60.9477 154.102 61.6848C154.471 62.422 154.84 62.7905 155.208 62.7905H143.993ZM181.014 62.7905C181.383 62.7905 181.725 62.422 182.041 61.6848C182.409 60.9477 182.594 59.7367 182.594 58.0519V30.5676C182.594 28.8827 182.409 27.698 182.041 27.0136C181.725 26.2764 181.383 25.8815 181.014 25.8289H190.649V58.0519C190.649 59.7367 190.807 60.9477 191.123 61.6848C191.492 62.422 191.86 62.7905 192.229 62.7905H181.014ZM185.832 18.247C184.305 18.247 183.12 17.8258 182.278 16.9834C181.435 16.0883 181.014 15.0616 181.014 13.9032C181.014 12.6922 181.409 11.6655 182.199 10.8231C183.041 9.98067 184.252 9.55946 185.832 9.55946C187.411 9.55946 188.596 9.98067 189.386 10.8231C190.228 11.6655 190.649 12.6922 190.649 13.9032C190.649 15.0616 190.228 16.0883 189.386 16.9834C188.543 17.8258 187.359 18.247 185.832 18.247ZM198.985 80.3236C199.353 80.3236 199.696 79.955 200.011 79.2179C200.38 78.4808 200.564 77.2698 200.564 75.5849V30.5676C200.564 28.8827 200.38 27.698 200.011 27.0136C199.696 26.2764 199.353 25.8815 198.985 25.8289H208.62V27.4085L208.462 28.909L208.62 29.067C209.304 28.3825 210.226 27.7507 211.384 27.1715C212.595 26.5397 214.017 26.0395 215.649 25.6709C217.281 25.2497 219.045 25.0391 220.941 25.0391C225.837 25.0391 229.707 25.9079 232.55 27.6454C235.393 29.3302 237.421 31.6206 238.632 34.5165C239.895 37.4123 240.527 40.7031 240.527 44.3887C240.527 48.0217 239.922 51.2861 238.711 54.1819C237.5 57.0778 235.472 59.3682 232.629 61.053C229.786 62.7379 225.89 63.5803 220.941 63.5803C218.045 63.5803 215.596 63.2381 213.596 62.5536C211.647 61.8691 209.989 60.9214 208.62 59.7104L208.462 59.7894L208.62 61.2899V75.5849C208.62 77.2698 208.778 78.4808 209.094 79.2179C209.462 79.955 209.831 80.3236 210.2 80.3236H198.985ZM220.151 57.9729C223.415 57.9729 225.942 57.4464 227.733 56.3933C229.523 55.3403 230.76 53.8134 231.445 51.8126C232.129 49.7592 232.471 47.2845 232.471 44.3887C232.471 41.4928 232.103 39.0182 231.366 36.9648C230.681 34.9113 229.444 33.3318 227.654 32.2261C225.916 31.1204 223.415 30.5676 220.151 30.5676C216.992 30.5676 214.57 31.1994 212.885 32.463C211.253 33.7267 210.121 35.4115 209.489 37.5176C208.91 39.6237 208.62 41.9404 208.62 44.4677C208.62 47.0476 208.936 49.3643 209.568 51.4177C210.252 53.4711 211.411 55.077 213.043 56.2354C214.728 57.3937 217.097 57.9729 220.151 57.9729Z" fill="#936FE0"/>
<path d="M227.608 96.9373L216.861 100.987C216.861 100.987 209.97 102.96 205.488 103.946C200.303 105.088 192.095 106.283 192.095 106.283C192.095 106.283 184.332 107.516 179.323 107.996C172.837 108.618 162.656 108.775 162.656 108.775L137.727 108.775" stroke="#321E5D" stroke-width="0.31152" stroke-dasharray="2.18 2.18"/>
<path d="M264.348 93.4719C264.215 93.1882 264.038 93.0051 263.847 92.807C261.52 90.3991 258.876 91.7045 258.876 91.7045L241.575 98.4284C241.343 98.522 240.991 98.2719 240.786 98.1692L230.466 90.9236C230.261 90.8209 229.937 90.8924 229.748 91.0826L228.484 92.3498C228.294 92.5399 228.242 92.866 228.368 93.0746L233.1 101.135C233.226 101.344 233.345 101.591 233.114 101.684L224.375 105.12C224.143 105.213 223.793 105.192 223.596 105.072C223.596 105.072 219.066 102.322 218.01 101.659C217.811 101.511 217.6 101.567 217.417 101.703C217.005 102.01 216.416 102.576 216.416 102.576C216.223 102.762 216.176 103.077 216.311 103.277L219.172 107.836C219.307 108.037 219.613 108.228 219.844 108.253L228.842 108.335C229.073 108.36 229.452 108.31 229.685 108.223C229.685 108.223 258.933 96.9486 259.131 96.7711C259.131 96.7711 262.961 95.3495 264.099 94.1321C264.316 93.9008 264.481 93.7556 264.348 93.4719Z" fill="#321E5D"/>
</g>
<defs>
<clipPath id="clip0_127_6">
<rect width="265.092" height="130" fill="white" transform="translate(0.421875)"/>
</clipPath>
</defs>
</svg>
